<svg width="1012" height="207" viewBox="0 0 1012 207" fill="none" xmlns="http://www.w3.org/2000/svg">
<path fill-rule="evenodd" clip-rule="evenodd" d="M111.568 0.902562C110.193 1.32356 106.598 2.92156 103.58 4.45456C100.561 5.98656 95.1612 7.84956 91.5802 8.59256C73.4402 12.3596 58.7772 26.2416 52.0512 46.0166C47.2482 60.1356 47.0632 80.4216 51.5582 99.9656C54.9842 114.863 56.5602 125.775 56.5642 134.633L56.5682 142.801L61.3182 144.549C63.9302 145.51 66.3542 146.56 66.7032 146.881C67.0532 147.203 65.3992 151.966 63.0272 157.466L58.7152 167.466L63.6412 167.768C68.4942 168.066 68.5682 168.12 68.5682 171.393C68.5682 174.296 68.1832 174.793 65.5212 175.325C63.2952 175.771 62.1922 176.746 61.4242 178.95C60.4022 181.881 60.1922 181.966 53.9702 181.966C49.1312 181.966 47.1272 182.407 45.7622 183.772C43.1922 186.342 38.9132 202.703 40.2542 204.83C41.1892 206.312 46.4022 206.466 95.5682 206.466C145.505 206.466 149.936 206.33 150.919 204.771C152.482 202.294 148.041 184.289 145.536 182.949C144.526 182.408 141.675 181.966 139.2 181.966C135.049 181.966 134.676 181.756 134.384 179.248C134.141 177.154 133.322 176.317 130.818 175.603C128.032 174.809 127.568 174.226 127.568 171.513C127.568 168.619 127.923 168.27 131.734 167.408C135.386 166.582 136.072 165.973 137.3 162.466C139.821 155.268 140.009 141.605 137.739 130.661C134.268 113.929 127.696 102.559 111.899 85.9596L103.341 76.9656H107.417C109.659 76.9656 113.873 76.0176 116.781 74.8576C124.692 71.7036 131.287 71.8246 136.136 75.2136C138.299 76.7246 141.805 79.1806 143.928 80.6716C146.726 82.6356 148.88 83.3386 151.759 83.2236C160.204 82.8866 169.796 75.5976 171.126 68.5056C172.174 62.9216 169.099 58.6106 155.073 46.0056C148.011 39.6586 140.135 31.7686 137.572 28.4726C133.212 22.8676 132.422 22.3296 125.354 20.1486L117.798 17.8176L119.683 9.19256C120.72 4.44856 121.568 0.431562 121.568 0.266562C121.568 -0.327438 114.016 0.153562 111.568 0.902562Z" fill="#D72F7C"/>
<path d="M289.793 43.2129H304.243L320.223 85.2029L336.373 43.2129H350.823L329.913 95.7429L350.653 145.553L391.453 42.5329H408.113L357.623 163.233H344.363L320.393 106.283L296.253 163.233H282.993L232.673 42.5329H249.163L290.133 145.553L310.703 95.7429L289.793 43.2129ZM401.855 163.233L451.495 42.5329H464.075L513.545 163.233H497.225L482.945 127.873H432.285L418.175 163.233H401.855ZM457.785 60.2129L435.345 115.973H479.545L457.785 60.2129ZM529.65 163.233V42.5329H609.38V56.1329H544.95V96.4229H599.18V109.173H544.95V163.233H529.65ZM628.429 163.233V42.5329H670.249C679.883 42.5329 688.326 44.1196 695.579 47.2929C702.946 50.4662 709.066 54.7729 713.939 60.2129C718.813 65.6529 722.439 72.0562 724.819 79.4229C727.313 86.6762 728.559 94.4396 728.559 102.713C728.559 111.893 727.199 120.223 724.479 127.703C721.759 135.07 717.849 141.416 712.749 146.743C707.649 151.956 701.473 156.036 694.219 158.983C687.079 161.816 679.089 163.233 670.249 163.233H628.429ZM713.089 102.713C713.089 95.9129 712.126 89.6796 710.199 84.0129C708.386 78.2329 705.609 73.3029 701.869 69.2229C698.243 65.1429 693.766 61.9696 688.439 59.7029C683.113 57.3229 677.049 56.1329 670.249 56.1329H643.729V149.633H670.249C677.163 149.633 683.283 148.443 688.609 146.063C694.049 143.683 698.526 140.396 702.039 136.203C705.666 132.01 708.386 127.08 710.199 121.413C712.126 115.633 713.089 109.4 713.089 102.713ZM832.391 149.633V163.233H750.451V42.5329H830.861V56.1329H765.751V95.2329H822.361V107.983H765.751V149.633H832.391ZM869.511 71.0929V163.233H854.211V42.5329H866.111L940.911 136.543V42.7029H956.211V163.233H943.291L869.511 71.0929Z" fill="#3D5298"/>
</svg>
